<?xml version="1.0" standalone="no"?><!DOCTYPE svg PUBLIC "-//W3C//DTD SVG 1.1//EN" "http://www.w3.org/Graphics/SVG/1.1/DTD/svg11.dtd"><svg class="icon" width="400px" height="400.00px" viewBox="0 0 1024 1024" version="1.1" xmlns="http://www.w3.org/2000/svg"><path d="M296.476444 468.622222c10.723556 0.028444 20.963556 4.664889 28.558223 12.885334l431.047111 468.622222a46.734222 46.734222 0 0 1-0.995556 61.013333 38.115556 38.115556 0 0 1-56.120889 1.052445L267.918222 543.601778A45.624889 45.624889 0 0 1 256 512.540444c0-11.662222 4.295111-22.840889 11.946667-31.032888a39.111111 39.111111 0 0 1 28.529777-12.885334zM727.523556 0c10.695111 0.028444 20.963556 4.664889 28.558222 12.885333 7.623111 8.192 11.918222 19.370667 11.918222 31.061334 0 11.662222-4.295111 22.840889-11.946667 31.032889L325.063111 543.601778a38.115556 38.115556 0 0 1-56.120889-1.080889 46.734222 46.734222 0 0 1-0.995555-61.013333L698.965333 12.885333A39.111111 39.111111 0 0 1 727.523556 0z"  /></svg>