<?xml version="1.0" standalone="no"?><!DOCTYPE svg PUBLIC "-//W3C//DTD SVG 1.1//EN" "http://www.w3.org/Graphics/SVG/1.1/DTD/svg11.dtd"><svg class="icon" width="200px" height="200.00px" viewBox="0 0 1024 1024" version="1.1" xmlns="http://www.w3.org/2000/svg"><path d="M938.666667 426.666667l0-85.333333c0-46.933333-38.4-85.333333-85.333333-85.333333L128 256c-46.933333 0-85.333333 38.4-85.333333 85.333333l0 341.333333c0 46.933333 38.4 85.333333 85.333333 85.333333l725.333333 0c46.933333 0 85.333333-38.4 85.333333-85.333333l0-85.333333c23.466667 0 42.666667-19.2 42.666667-42.666667l0-85.333333C981.333333 445.866667 962.133333 426.666667 938.666667 426.666667zM896 469.333333l0 85.333333 0 128c0 23.466667-19.2 42.666667-42.666667 42.666667L128 725.333333c-23.466667 0-42.666667-19.2-42.666667-42.666667L85.333333 341.333333c0-23.466667 19.2-42.666667 42.666667-42.666667l725.333333 0c23.466667 0 42.666667 19.2 42.666667 42.666667L896 469.333333zM512 384l-298.666667 128 213.333333 0 42.666667 128 298.666667-128L554.666667 512 512 384z" /></svg>